<svg xmlns="http://www.w3.org/2000/svg" height="1200" width="1600" version="1.1" xmlns:xlink="http://www.w3.org/1999/xlink" xmlns:svgjs="http://svgjs.com/svgjs"><rect fill="#171717" width="1600" height="1200"></rect><g><path d="M856.15 194.73C857.54 196.12 853.53 502.97 857.54 502.64H1109.25C1109.98 502.64 1110.64 501.99 1110.64 501.25 1110.64 501.25 1110.06 198.49 1110.64 194.73 1110.64 193.99 1109.98 193.33 1109.25 193.33H857.54C856.81 193.33 856.15 193.99 856.15 194.73Z" fill="#ededed" opacity="1" stroke-width="4" stroke="none"></path><path d="M983.8 293.9C1001.88 293.9 1016.53 279.25 1016.53 261.17 1016.53 243.09 1001.88 228.44 983.8 228.44 965.73 228.44 951.07 243.09 951.07 261.17 951.07 279.25 965.73 293.9 983.8 293.9Z" fill="#b1926b" opacity="1" stroke-width="4" stroke="none"></path><path d="M978.73 258.39C982.84 258.39 986.18 255.06 986.18 250.94 986.18 246.83 982.84 243.5 978.73 243.5 974.61 243.5 971.28 246.83 971.28 250.94 971.28 255.06 974.61 258.39 978.73 258.39Z" fill="#b6aa9a" opacity="1" stroke-width="4" stroke="none"></path><path d="M1003.52 304.21H963.35V421.47C963.35 427.85 965.8 433.91 970.14 438.57L972.35 440.95C976.19 445.04 978.32 450.36 978.32 456V466.48C978.32 469.34 980.61 471.63 983.48 471.63 986.34 471.63 988.63 469.34 988.63 466.48V456C988.63 450.44 990.76 445.04 994.6 440.95L996.81 438.57C1001.15 433.99 1003.61 427.85 1003.61 421.47L1003.52 304.21Z" fill="#b1926b" opacity="1" stroke-width="4" stroke="none"></path><path d="M971.28 423.35V385.47H995.59V423.35C995.59 430.06 990.19 435.46 983.48 435.46 976.68 435.54 971.28 430.06 971.28 423.35Z" fill="#8b6f4b" opacity="1" stroke-width="4" stroke="none"></path><path d="M947.47 293H1019.4C1026.11 293 1031.51 298.4 1031.51 305.19 1031.51 311.9 1026.11 317.39 1019.4 317.39H947.47C940.76 317.39 935.36 311.98 935.36 305.19 935.28 298.4 940.76 293 947.47 293Z" fill="#8b6f4b" opacity="1" stroke-width="4" stroke="none"></path><path d="M981.1 335.96H985.69" stroke="#eaeaea" stroke-width="4" stroke-linecap="round" stroke-linejoin="round" opacity="1" fill="none"></path><path d="M981.1 355.6H985.69" stroke="#ededed" stroke-width="4" stroke-linecap="round" stroke-linejoin="round" opacity="1" fill="none"></path><path d="M981.1 375.24H985.69" stroke="#ededed" stroke-width="4" stroke-linecap="round" stroke-linejoin="round" opacity="1" fill="none"></path><path d="M981.1 394.88H985.69" stroke="#ededed" stroke-width="4" stroke-linecap="round" stroke-linejoin="round" opacity="1" fill="none"></path><path d="M981.1 414.52H985.69" stroke="#ededed" stroke-width="4" stroke-linecap="round" stroke-linejoin="round" opacity="1" fill="none"></path><path d="M890.44 469.91H929.72" stroke="#b1926b" stroke-width="4" stroke-linecap="round" stroke-linejoin="round" opacity="1" fill="none"></path></g><g><path d="M301.61 986.49L324.91 882.89 324.96 882.83 357.58 886.73 392.4 882.83C392.4 882.83 392.46 882.83 392.46 882.89L415.76 986.49H301.61Z" fill="#483c2e" opacity="1" stroke-width="4" stroke="none"></path><path d="M301.61 986.49L324.91 882.89 324.96 882.83H346.45L338.3 986.49H301.61Z" fill="#171006" opacity="0.3" stroke-width="4" stroke="none"></path><path d="M358.68 898.56C337.08 898.56 325.9 884.23 324.96 882.95 324.96 882.89 324.96 882.83 325.02 882.83H392.34C392.4 882.83 392.4 882.89 392.4 882.95 391.47 884.23 380.29 898.56 358.68 898.56Z" fill="#534636" opacity="1" stroke-width="4" stroke="none"></path><path d="M411.8 839.27C397.41 839.27 387.04 834.5 385.88 827.33 385.18 822.97 388.09 818.25 394.03 814.17 399.97 810.04 408.24 807.01 417.27 805.61 420.88 805.03 424.43 804.74 427.93 804.74 442.31 804.74 452.68 809.51 453.84 816.68 455.24 825.7 441.2 835.49 422.45 838.46 418.84 838.98 415.23 839.27 411.8 839.27Z" fill="#231f20" opacity="1" stroke-width="4" stroke="none"></path><path d="M458.44 927.79C448.72 927.79 436.31 921.44 426.06 911.19 410.75 895.88 404.98 876.66 413.25 868.39 415.76 865.89 419.37 864.61 423.68 864.61 433.4 864.61 445.81 870.95 456.05 881.2 471.37 896.52 477.14 915.74 468.87 924.01 466.42 926.51 462.81 927.79 458.44 927.79Z" fill="#231f20" opacity="1" stroke-width="4" stroke="none"></path><path d="M266.67 897.97C262.83 897.97 259.62 896.87 257.18 894.71 248.68 887.2 252.64 868.86 265.91 853.95 275.06 843.64 286.59 837.23 295.9 837.23 299.75 837.23 302.95 838.34 305.4 840.5 313.9 848.01 309.94 866.35 296.66 881.26 287.52 891.57 275.99 897.97 266.67 897.97Z" fill="#231f20" opacity="1" stroke-width="4" stroke="none"></path><path d="M257.35 894.48C271.91 865.36 291.77 848.01 306.27 841.49 324.32 833.33 348.78 850.8 358.68 897.39" stroke="#000000" stroke-width="4" stroke-linecap="round" stroke-linejoin="round" opacity="1" fill="none"></path><path d="M453.61 818.77C429.73 815.86 401.78 818.77 386.05 827.51 374.41 833.97 355.95 851.85 350.53 895.65" stroke="#000000" stroke-width="4" stroke-linecap="round" stroke-linejoin="round" opacity="1" fill="none"></path><path d="M362.76 896.81C364.8 883.71 376.68 864.43 395.95 863.62 423.33 862.45 454.19 903.22 467.59 924.76" stroke="#000000" stroke-width="4" stroke-linecap="round" stroke-linejoin="round" opacity="1" fill="none"></path><path d="M404.52 937.23C378.78 939.79 358.8 960.11 357.58 985.91" stroke="#000000" stroke-width="4" stroke-linecap="round" stroke-linejoin="round" opacity="1" fill="none"></path><path d="M312.09 942.7C319.96 946.43 329.45 943.05 333.12 935.13 336.84 927.27 333.47 917.77 325.55 914.11 323.45 913.12 321.12 912.59 318.79 912.59" stroke="#000000" stroke-width="4" stroke-linecap="round" stroke-linejoin="round" opacity="1" fill="none"></path><path d="M372.08 926.51C375.94 926.51 379.07 923.38 379.07 919.52 379.07 915.66 375.94 912.53 372.08 912.53 368.22 912.53 365.09 915.66 365.09 919.52 365.09 923.38 368.22 926.51 372.08 926.51Z" stroke="#000000" stroke-width="4" stroke-linecap="round" stroke-linejoin="round" opacity="1" fill="none"></path></g><g><path d="M890.14 685.04H759.36V752.01H890.14V685.04Z" fill="#b1926b" opacity="1" stroke-width="4" stroke="none"></path><path d="M890.14 751.22H759.36V818.19H890.14V751.22Z" fill="#b1926b" opacity="1" stroke-width="4" stroke="none"></path><path d="M759.36 685.04H890.14V725.3L759.36 690.48V685.04Z" fill="#ddb888" opacity="0.2" stroke-width="4" stroke="none"></path><path d="M759.36 751.22H890.14V791.48L759.36 756.66V751.22Z" fill="#ddb888" opacity="0.2" stroke-width="4" stroke="none"></path><path d="M809.15 751.22H840.43C840.43 759.81 833.42 766.82 824.83 766.82 816.16 766.9 809.15 759.89 809.15 751.22Z" fill="#231f20" opacity="1" stroke-width="4" stroke="none"></path><path d="M809.15 685.04H840.43C840.43 693.63 833.42 700.64 824.83 700.64 816.16 700.64 809.15 693.71 809.15 685.04Z" fill="#231f20" opacity="1" stroke-width="4" stroke="none"></path><path d="M519.22 565.29H924.73C960.89 565.29 990.2 594.59 990.2 630.83V671.72H453.67V630.83C453.67 594.59 482.98 565.29 519.22 565.29Z" fill="#deb887" opacity="1" stroke-width="4" stroke="none"></path><path d="M990.2 682.28H889.67V986.4H990.2V682.28Z" fill="#deb887" opacity="1" stroke-width="4" stroke="none"></path><path d="M889.67 682.28H986.18C988.15 682.28 989.57 684.25 988.94 686.14L889.9 985.69C889.83 985.84 889.67 985.76 889.67 985.69V682.28Z" fill="#5e5e5e" opacity="0.2" stroke-width="4" stroke="none"></path><path d="M554.2 682.28H453.67V986.4H554.2V682.28Z" fill="#deb887" opacity="1" stroke-width="4" stroke="none"></path><path d="M990.2 667.71H453.67V685.04H990.2V667.71Z" fill="#b1926b" opacity="1" stroke-width="4" stroke="none"></path><path d="M759.36 751.22L889.35 751.06" stroke="#000000" stroke-width="4" stroke-linecap="round" stroke-linejoin="round" opacity="1" fill="none"></path><path d="M453.67 685.04L990.2 684.88" stroke="#000000" stroke-width="4" stroke-linecap="round" stroke-linejoin="round" opacity="1" fill="none"></path></g><g><path d="M1228.98 351.77C1231.35 339.34 1235.57 314.86 1221.96 303.62 1208.35 292.38 1185.05 288.45 1167.22 295.48 1150.43 302.06 1146.95 315.3 1140 335.87 1140 335.87 1132.23 336.68 1131.42 339.71 1130.61 343.12 1135.27 349.03 1135.27 349.03 1129.87 366.12 1128.83 376.7 1134.53 384.83 1141.48 394.75 1156.86 395.04 1164.63 391.86L1163.45 396.74 1219.59 397.19C1222.55 383.87 1227.36 360.35 1228.98 351.77Z" fill="#fbcfaa" opacity="1" stroke-width="4" stroke="none"></path><path d="M1164.63 391.86C1164.63 391.86 1172.99 388.61 1179.42 384.91 1171.58 392.9 1163 398.37 1163 398.37L1164.63 391.86Z" fill="#9e5e28" opacity="0.2" stroke-width="4" stroke="none"></path><path d="M1175.69 345.73C1175.21 347.04 1171.36 336.31 1172.55 326.4 1172.55 326.03 1172.62 325.59 1172.77 325.22 1173.88 321.67 1177.5 319.74 1181.05 320.78 1194.22 324.77 1218.92 329.65 1231.5 327.21 1231.87 336.09 1230.31 344.37 1229.28 350.37 1228.17 356.13 1225.65 368.64 1223.29 380.03 1217.96 380.62 1202.58 379.21 1197.01 372.73 1195.99 372.48 1215.37 356.8 1203.83 343.26 1194.59 332.47 1175.21 347.04 1175.55 345.73Z" fill="#cac2bf" opacity="1" stroke-width="4" stroke="none"></path><path d="M1192.37 355.17L1184.6 360.79" stroke="#7b4a22" stroke-width="4" stroke-linecap="round" stroke-linejoin="round" opacity="1" fill="none"></path><path d="M1142.07 357.98C1145.55 358.35 1148.06 357.54 1150.73 355.32" stroke="#7b4a22" stroke-width="4" stroke-linecap="round" stroke-linejoin="round" opacity="1" fill="none"></path><path d="M1151.61 337.79C1150.27 337.79 1149.17 336.7 1149.17 335.35 1149.17 334 1150.27 332.91 1151.61 332.91 1152.96 332.91 1154.05 334 1154.05 335.35 1154.05 336.7 1152.96 337.79 1151.61 337.79Z" fill="#171314" opacity="1" stroke-width="4" stroke="none"></path><path d="M1164.41 391.86C1167.22 390.97 1171.66 388.75 1174.25 387.27" stroke="#7b4a22" stroke-width="4" stroke-linecap="round" stroke-linejoin="round" opacity="1" fill="none"></path><path d="M1126.32 382.91C1118.18 380.17 1114.7 393.19 1104.94 395.71 1097.54 397.63 1099.1 392.23 1104.94 386.39 1112.34 378.99 1127.5 379.43 1127.5 373.96 1127.5 367.75 1111.97 369.3 1111.97 369.3 1106.57 368.56 1094.51 368.12 1085.56 373.96 1076.24 380.1 1073.13 388.75 1065.37 408.13 1061.52 417.82 1057.01 426.18 1052.42 435.28L1087.19 455.18 1106.94 427.14C1106.86 427.29 1132.9 385.06 1126.32 382.91Z" fill="#fbcfaa" opacity="1" stroke-width="4" stroke="none"></path><path d="M1277.43 518.49C1273.73 489.79 1266.19 451.26 1254.5 432.62 1245.03 417.45 1222.7 408.58 1218.33 406.95 1217.89 406.8 1217.67 406.36 1217.74 405.91 1218.04 404.58 1218.63 401.62 1219.51 397.7 1219.66 397.11 1219.22 396.59 1218.63 396.59H1164.11C1163.67 396.59 1163.3 396.89 1163.23 397.33L1161.45 404.88C1161.38 405.32 1161.01 405.62 1160.56 405.62 1126.83 405.25 1106.94 427.36 1106.94 427.36L1086 451.33C1085.71 451.63 1085.26 451.77 1084.89 451.55L1053.46 435.58C1053.01 435.35 1052.42 435.5 1052.2 436.02 1046.8 446.74 1042.07 457.77 1038.15 469.01 1027.87 498.3 1033.49 532.69 1070.03 532.69 1098.21 532.69 1127.28 505.7 1133.64 499.41 1134.16 498.89 1135.04 499.19 1135.19 499.93L1144.36 557.32C1144.44 557.77 1144.81 558.14 1145.25 558.14L1233.35 557.4C1233.72 557.4 1234.01 557.62 1234.16 557.92L1255.31 599.04C1255.61 599.71 1256.57 599.71 1256.94 599.12 1267.89 580.55 1281.87 554 1277.43 518.49Z" fill="#483c2e" opacity="1" stroke-width="4" stroke="none"></path><path d="M1243.78 512.06C1243.78 512.06 1249.77 536.69 1252.58 546.6 1243.78 562.06 1234.6 576.93 1234.6 576.93L1234.01 557.47 1243.78 512.06Z" fill="#000000" opacity="0.2" stroke-width="4" stroke="none"></path><path d="M1146.58 488.61C1146.58 488.61 1154.42 526.55 1169.73 557.25L1144.44 557.47 1134.82 497.93 1146.58 488.61Z" fill="#000000" opacity="0.2" stroke-width="4" stroke="none"></path><path d="M1068.77 443.19L1085.49 451.7 1055.97 485.87C1065.22 466.94 1068.77 443.19 1068.77 443.19Z" fill="#000000" opacity="0.2" stroke-width="4" stroke="none"></path><path d="M1133.56 499.19C1142.15 492.16 1152.2 483.51 1152.2 483.51" stroke="#000000" stroke-width="4" stroke-linecap="round" stroke-linejoin="round" opacity="1" fill="none"></path><path d="M1085.49 451.7L1069.07 470.78" stroke="#000000" stroke-width="4" stroke-linecap="round" stroke-linejoin="round" opacity="1" fill="none"></path><path d="M1111.15 369.37C1102.65 370.93 1095.62 374.85 1091.7 378.69" stroke="#7b4a22" stroke-width="4" stroke-linecap="round" stroke-linejoin="round" opacity="1" fill="none"></path><path d="M1161.23 405.47L1173.29 405.03" stroke="#000000" stroke-width="4" stroke-linecap="round" stroke-linejoin="round" opacity="1" fill="none"></path><path d="M1246.29 500.59L1233.94 555.85" stroke="#000000" stroke-width="4" stroke-linecap="round" stroke-linejoin="round" opacity="1" fill="none"></path><path d="M1231.28 968.29L1284.53 950.46C1286.38 938.55 1287.56 926.27 1288.23 916.66L1214.34 916.36C1214.63 920.8 1214.41 926.05 1213.75 930.41L1231.28 968.29Z" fill="#fbcfaa" opacity="1" stroke-width="4" stroke="none"></path><path d="M1284.53 949.72H1260.86C1255.83 949.72 1250.95 951.13 1246.66 953.79L1237.64 959.48C1236.31 960.37 1234.46 959.93 1233.64 958.6 1233.2 957.93 1233.12 957.12 1233.27 956.3L1236.6 943.51C1238.15 937.59 1234.53 931.52 1228.61 930.04 1227.72 929.82 1226.84 929.67 1225.88 929.67H1213.45C1211.38 941.36 1204.43 952.01 1187.93 962.29 1179.65 967.55 1174.39 972.35 1171.14 976.42L1172.1 977.75H1277.87L1278.91 976.42C1281.35 967.77 1283.13 958.67 1284.53 949.72Z" fill="#b1926b" opacity="1" stroke-width="4" stroke="none"></path><path d="M1171.36 976.27C1164.93 984.34 1166.33 989.51 1166.33 989.51H1274.32C1276.1 985.22 1277.58 980.79 1278.84 976.27H1171.36Z" fill="#534636" opacity="1" stroke-width="4" stroke="none"></path><path d="M1151.24 916.43C1151.54 920.87 1151.24 926.42 1150.58 930.71L1167.29 965.4 1222.33 950.46C1224.17 938.55 1224.69 926.86 1225.36 917.17L1151.46 916.36 1151.24 916.43Z" fill="#fbcfaa" opacity="1" stroke-width="4" stroke="none"></path><path d="M1144.36 555.85H1192.66 1193.48 1233.94C1233.94 555.85 1244.29 563.46 1253.84 583.44 1269.37 615.98 1264.12 652.67 1263.45 669.98 1261.23 727.67 1270.11 771.31 1275.29 788.32 1292.15 843.73 1289.41 883.74 1289.12 895.35H1210.93V895.28H1147.99C1142.51 860.81 1135.93 811.11 1129.64 759.48 1117.81 661.84 1144.36 555.85 1144.36 555.85Z" fill="#534636" opacity="1" stroke-width="4" stroke="none"></path><path d="M1289.04 893.8H1210.93C1212.27 902.16 1213.23 908.67 1213.75 912.44 1213.97 914.29 1214.11 916.06 1214.26 917.91H1288.08C1289.04 903.71 1289.04 893.8 1289.04 893.8Z" fill="#686868" opacity="1" stroke-width="4" stroke="none"></path><path d="M1217.3 656.81C1217.3 656.81 1225.43 662.14 1224.62 684.25 1223.21 725.3 1222.47 751.19 1232.09 789.66 1244.44 832.63 1239.86 869.32 1226.54 893.8 1227.65 873.9 1227.65 851.12 1225.36 825.97 1222.47 794.24 1211.38 768.28 1210.42 743.72 1209.31 714.73 1215 685.81 1217.3 656.81Z" fill="#000000" opacity="0.2" stroke-width="4" stroke="none"></path><path d="M1253.98 583.73C1254.21 584.25 1254.5 584.77 1254.72 585.28 1260.34 597.05 1262.56 609.18 1263.97 620.94 1263.23 621.01 1262.56 621.01 1261.9 621.01 1251.84 621.01 1242.22 612.8 1240.37 602.74L1237.04 583.73H1253.32 1253.98Z" fill="#000000" opacity="1" stroke-width="4" stroke="none"></path><path d="M1222.62 949.94L1196.51 949.72C1191.48 949.72 1186.6 951.13 1182.31 953.79L1173.29 959.48C1171.95 960.37 1170.1 959.93 1169.29 958.6 1168.85 957.93 1168.77 957.12 1168.92 956.3L1172.25 943.51C1173.8 937.59 1170.18 931.52 1164.26 930.04 1163.37 929.82 1162.49 929.67 1161.52 929.67H1150.65C1148.58 941.36 1141.63 952.01 1125.13 962.29 1116.85 967.55 1111.6 972.35 1108.34 976.42V978.79L1216.7 979.38 1217.3 976.72C1219.96 968.14 1221.36 958.89 1222.62 949.94Z" fill="#b1926b" opacity="1" stroke-width="4" stroke="none"></path><path d="M1175.43 583.73H1211.97L1215.3 602.74C1217.07 612.87 1210.34 621.01 1200.21 621.01 1190.08 621.01 1180.53 612.8 1178.68 602.74L1175.43 583.73Z" fill="#000000" opacity="1" stroke-width="4" stroke="none"></path><path d="M1141.04 949.79L1148.36 955.93" stroke="#927c60" stroke-width="4" stroke-linecap="round" stroke-linejoin="round" opacity="1" fill="none"></path><path d="M1132.25 957.89L1139.93 963.26" stroke="#927c60" stroke-width="4" stroke-linecap="round" stroke-linejoin="round" opacity="1" fill="none"></path><path d="M1108.27 976.27C1103.16 981.97 1104.2 989.51 1104.2 989.51L1213.23 989.37C1215 985.08 1216.7 980.79 1217.96 976.27H1108.27Z" fill="#534636" opacity="1" stroke-width="4" stroke="none"></path><path d="M1226.54 893.8H1147.77C1149.1 902.16 1150.43 908.67 1150.95 912.44 1151.17 914.29 1151.17 916.06 1151.32 917.91H1225.36C1226.25 903.71 1226.54 893.8 1226.54 893.8Z" fill="#686868" opacity="1" stroke-width="4" stroke="none"></path><path d="M1217.67 655.92C1217.3 660.66 1216.7 665.61 1215.96 670.72 1204.28 751.34 1216.63 779.3 1220.55 799.42 1228.69 841.58 1227.58 871.61 1226.47 895.8L1225.21 920.95C1224.32 937.37 1221.73 954.23 1221.73 954.23 1220.4 963.18 1216.56 980.86 1214.11 989.51" stroke="#000000" stroke-width="4" stroke-linecap="round" stroke-linejoin="round" opacity="1" fill="none"></path></g><g><path d="M669.92 667.73H731.39L735.34 645.42 739.29 622.95H677.81L676.37 631.08 669.92 667.73Z" fill="#483c2e" opacity="1" stroke-width="4" stroke="none"></path><path d="M735.34 645.42L739.29 622.95H677.81L676.37 631.08 735.34 645.42Z" fill="#000000" opacity="0.2" stroke-width="4" stroke="none"></path><path d="M627.95 627.2H787.63C798.26 627.2 808.35 618.63 810.25 608L829.6 498.41C831.5 487.78 824.37 479.21 813.82 479.21H654.06C643.43 479.21 633.34 487.78 631.44 498.41L612.16 608.08C610.26 618.63 617.32 627.2 627.95 627.2Z" fill="#483c2e" opacity="1" stroke-width="4" stroke="none"></path><path d="M636.22 615.67H783.46C790.29 615.67 796.74 610.13 797.95 603.37L815.64 503.19C816.85 496.36 812.3 490.9 805.47 490.9H658.23C651.4 490.9 644.95 496.44 643.73 503.19L626.05 603.37C624.91 610.13 629.47 615.67 636.22 615.67Z" fill="#ededed" opacity="1" stroke-width="4" stroke="none"></path><path d="M677.05 627.2H738.53" stroke="#000000" stroke-width="4" stroke-linecap="round" stroke-linejoin="round" opacity="1" fill="none"></path></g><g><path d="M704.06 521.77L720.09 535.77" stroke="#b1926b" stroke-width="4" stroke-linecap="round" stroke-linejoin="round" opacity="1" fill="none"></path><path d="M676.57 561.6L716.31 562.72" stroke="#b1926b" stroke-width="4" stroke-linecap="round" stroke-linejoin="round" opacity="1" fill="none"></path><path d="M712.89 562.75C713.01 562.65 724.13 557.89 717.41 534.38L754.05 521.42C754.06 521.39 754.56 521.36 755.34 521.36 758.29 521.36 765.25 521.78 766.22 525.6 767.71 531.51 758.2 537.95 758.11 538.02L758.41 539.01C762.03 551.97 764.89 562.21 760.18 573.99 757.33 580.62 752.18 585.99 745.68 589.12L745.66 589.13 712.89 562.75Z" fill="#b1926b" opacity="1" stroke-width="4" stroke="none"></path><path d="M750.92 552.02C748.64 552.63 741.18 551.38 739.96 544.98" stroke="#756653" stroke-width="4" stroke-linecap="round" opacity="1" fill="none"></path></g><g><path d="M369.51 458.34H414.22C419.99 458.34 424.69 463.04 424.69 468.81V581.31C424.69 587.08 419.99 591.78 414.22 591.78H369.51C363.74 591.78 359.04 587.08 359.04 581.31V468.81C359.04 463.04 363.74 458.34 369.51 458.34Z" fill="#deb887" opacity="1" stroke-width="4" stroke="none"></path><path d="M404.78 484.54H379.13C375.84 484.54 373.15 481.85 373.15 478.56 373.15 475.27 375.84 472.57 379.13 472.57H404.78C408.07 472.57 410.76 475.27 410.76 478.56 410.76 481.89 408.07 484.54 404.78 484.54Z" fill="#ededed" opacity="1" stroke-width="4" stroke="none"></path><path d="M380.46 485.91C376.4 485.91 373.15 482.62 373.15 478.6 373.15 474.54 376.44 471.29 380.46 471.29 384.52 471.29 387.77 474.58 387.77 478.6 387.81 482.62 384.52 485.91 380.46 485.91Z" fill="#534636" opacity="1" stroke-width="4" stroke="none"></path><path d="M379.13 518.95H404.78C408.07 518.95 410.76 521.64 410.76 524.93 410.76 528.22 408.07 530.92 404.78 530.92H379.13C375.84 530.92 373.15 528.22 373.15 524.93 373.15 521.64 375.84 518.95 379.13 518.95Z" fill="#ededed" opacity="1" stroke-width="4" stroke="none"></path><path d="M403.45 517.62C407.51 517.62 410.76 520.92 410.76 524.93 410.76 528.99 407.47 532.24 403.45 532.24 399.39 532.24 396.14 528.95 396.14 524.93 396.1 520.92 399.39 517.62 403.45 517.62Z" fill="#b1926b" opacity="1" stroke-width="4" stroke="none"></path><path d="M379.13 565.32H404.78C408.07 565.32 410.76 568.02 410.76 571.31 410.76 574.6 408.07 577.29 404.78 577.29H379.13C375.84 577.29 373.15 574.6 373.15 571.31 373.15 568.02 375.84 565.32 379.13 565.32Z" fill="#ededed" opacity="1" stroke-width="4" stroke="none"></path><path d="M403.45 564C407.51 564 410.76 567.29 410.76 571.31 410.76 575.37 407.47 578.62 403.45 578.62 399.39 578.62 396.14 575.33 396.14 571.31 396.1 567.29 399.39 564 403.45 564Z" fill="#b1926b" opacity="1" stroke-width="4" stroke="none"></path><path d="M379.13 495.78H404.78C408.07 495.78 410.76 498.48 410.76 501.77 410.76 505.06 408.07 507.75 404.78 507.75H379.13C375.84 507.75 373.15 505.06 373.15 501.77 373.15 498.48 375.84 495.78 379.13 495.78Z" fill="#ededed" opacity="1" stroke-width="4" stroke="none"></path><path d="M380.46 494.42C384.52 494.42 387.77 497.71 387.77 501.72 387.77 505.78 384.47 509.03 380.46 509.03 376.4 509.03 373.15 505.74 373.15 501.72 373.15 497.71 376.44 494.42 380.46 494.42Z" fill="#534636" opacity="1" stroke-width="4" stroke="none"></path><path d="M379.13 542.16H404.78C408.07 542.16 410.76 544.85 410.76 548.14 410.76 551.43 408.07 554.13 404.78 554.13H379.13C375.84 554.13 373.15 551.43 373.15 548.14 373.15 544.85 375.84 542.16 379.13 542.16Z" fill="#ededed" opacity="1" stroke-width="4" stroke="none"></path><path d="M380.46 540.83C384.52 540.83 387.77 544.12 387.77 548.14 387.77 552.2 384.47 555.45 380.46 555.45 376.4 555.45 373.15 552.16 373.15 548.14 373.15 544.08 376.44 540.83 380.46 540.83Z" fill="#534636" opacity="1" stroke-width="4" stroke="none"></path></g><g><path d="M534.03 816.17C539.23 816.17 543.52 820.38 543.52 825.58L543.44 850.22V952.14C543.44 957.35 539.23 961.56 534.03 961.56 528.82 961.56 524.62 957.35 524.62 952.14V825.58C524.54 820.38 528.75 816.17 534.03 816.17Z" fill="#b1926b" opacity="1" stroke-width="4" stroke="none"></path><path d="M534.03 816.17C528.75 816.17 524.54 820.38 524.62 825.58V858.79L543.44 850.22 543.52 825.58C543.44 820.38 539.23 816.17 534.03 816.17Z" fill="#000000" opacity="0.2" stroke-width="4" stroke="none"></path><path d="M600.06 974.18C598.76 973.03 534.56 916.95 534.56 916.95H533.42C533.42 916.95 469.22 973.03 467.91 974.18 466.31 975.1 464.55 979.61 467.07 982.52 469.06 984.97 472.58 985.58 475.26 983.82 475.41 983.75 510.54 959.64 531.58 945.18 533.03 944.19 534.87 944.19 536.32 945.18 557.37 959.64 592.57 983.75 592.64 983.82 595.4 985.58 598.99 984.89 600.83 982.52 603.43 979.54 601.67 975.1 600.06 974.18Z" fill="#231f20" opacity="1" stroke-width="4" stroke="none"></path><path d="M518.72 913.27H549.26C551.09 913.27 552.55 914.73 552.55 916.56V932.94H515.36V916.56C515.43 914.73 516.89 913.27 518.72 913.27Z" fill="#483c2e" opacity="1" stroke-width="4" stroke="none"></path><path d="M515.43 810.2H552.62V835.68C552.62 836.98 551.55 838.13 550.17 838.13H517.81C516.5 838.13 515.43 837.06 515.43 835.68V810.2Z" fill="#483c2e" opacity="1" stroke-width="4" stroke="none"></path><path d="M479.01 795.05H588.97C596.31 795.05 602.21 801.02 602.21 808.29 602.21 815.63 596.24 821.53 588.97 821.53H479.01C471.66 821.53 465.77 815.56 465.77 808.29 465.77 801.02 471.74 795.05 479.01 795.05Z" fill="#231f20" opacity="1" stroke-width="4" stroke="none"></path></g><g><path d="M577.66 470.29C577.35 470.22 577.19 469.91 577.27 469.68 577.35 467.97 577.58 461.79 576.65 454.76 575.96 449.42 573.02 444.16 570.39 438.98 560.96 420.82 526.79 417.88 510.86 434.27 503.83 441.54 499.42 447.64 499.42 470.06 499.42 491.63 496.33 525.26 496.1 527.73 496.1 527.81 496.18 527.89 496.25 527.89L548.59 529.36C548.67 529.36 548.74 529.28 548.74 529.2V514.2C548.74 514.13 548.82 514.05 548.9 514.05 549.9 514.36 554.93 515.75 560.65 515.75 565.13 515.75 569.85 514.82 573.64 511.88 583.69 504.15 579.28 484.52 578.51 481.43 578.43 481.19 578.59 480.96 578.74 480.88 579.82 480.34 582.91 478.57 583.69 475.86 584.54 473.15 579.28 470.91 577.66 470.29Z" fill="#f2a89b" opacity="1" stroke-width="4" stroke="none"></path><path d="M680.09 932.12L683.49 921.3V921.22C683.49 920.45 683.1 910.01 683.26 908.85 683.88 903.36 684.73 897.33 685.73 890.53 687.43 878.93 689.6 865.25 691.61 849.02 694.47 825.67 698.33 795.13 698.56 793.05 698.56 792.97 698.56 792.97 698.49 792.97L625.28 786.94C625.2 786.94 625.12 787.02 625.2 787.09 626.28 794.67 625.66 801.55 624.2 809.05 620.49 828.76 611.52 852.5 615 902.59 615.69 911.87 617.16 928.02 620.33 948.28 620.33 948.36 620.33 948.36 620.41 948.36L656.28 958.48H656.36L680.09 932.12Z" fill="#f2a89b" opacity="1" stroke-width="4" stroke="none"></path><path d="M700.19 953.69C687.97 944.8 684.42 932.28 683.49 921.38 683.49 921.3 683.41 921.22 683.34 921.22L660.53 921.84C653.88 921.99 649.63 929.11 652.72 935.14L658.75 946.73C658.98 947.2 658.67 947.81 658.13 947.81L620.49 948.2C620.41 948.2 620.41 948.2 620.41 948.28 621.64 955.85 622.96 963.89 624.66 972.55L679.16 976.96 726.63 972.47C722.76 967.84 710.86 961.42 700.19 953.69Z" fill="#a0743d" opacity="1" stroke-width="4" stroke="none"></path><path d="M624.58 972.63C625.43 976.96 627.13 984.46 627.6 986.47 627.6 986.62 627.75 986.7 627.91 986.7L730.49 986.85C730.72 986.85 730.88 986.7 730.88 986.47 730.88 980.13 729.64 976.19 726.7 972.55 726.7 972.55 726.7 972.55 726.63 972.55L624.58 972.63C624.58 972.55 624.58 972.55 624.58 972.63Z" fill="#3d3326" opacity="1" stroke-width="4" stroke="none"></path><path d="M685.73 890.45C687.43 878.86 689.67 865.25 691.61 848.94 694.54 824.74 698.56 792.89 698.56 792.89L625.12 786.86C626.28 794.44 625.59 801.4 624.2 808.89 666.25 830.15 654.19 857.37 685.73 890.45Z" fill="#050505" opacity="0.2" stroke-width="4" stroke="none"></path><path d="M765.82 882.8C765.2 881.64 764.58 880.17 763.89 878.7 763.89 878.63 763.81 878.63 763.81 878.55 752.83 850.1 735.44 788.56 731.65 778.28 722.53 753.31 714.95 731.43 676.22 717.52 675.99 717.44 675.68 717.36 675.37 717.36 674.68 717.36 674.14 717.44 673.67 717.6 672.82 717.83 672.13 718.6 671.89 719.53L655.97 791.96C655.66 793.51 656.82 795.06 658.44 795.06L661.69 795.13C662.62 795.13 663.47 795.68 663.93 796.53 675.99 820.03 669.5 846.08 702.58 905.45 703.9 907.85 710.08 919.21 720.98 935.29 721.52 936.06 722.37 936.45 723.3 936.37L755 933.44C755.46 933.36 755.85 933.2 756.23 932.97L773.24 920.99C774.09 920.37 774.48 919.37 774.25 918.36 773.01 912.25 768.68 890.99 765.82 883.03 765.9 883.03 765.82 882.95 765.82 882.8Z" fill="#f2a89b" opacity="1" stroke-width="4" stroke="none"></path><path d="M827.51 911.56C817.69 909.55 803.78 909.39 794.89 908.31 794.89 908.31 794.89 908.31 794.81 908.31 788.78 907 776.33 907.07 765.67 882.95 765.51 882.57 765.05 882.41 764.66 882.65L743.32 895.01C738.3 897.95 737.99 905.06 742.78 908.39L755.23 916.97C755.69 917.28 755.62 917.9 755.15 918.13L722.37 936.14C721.99 936.37 721.91 936.84 722.14 937.15 727.32 944.64 733.35 953.23 740.46 962.19 740.7 962.43 741.01 962.58 741.31 962.43L791.8 942.71C791.87 942.71 791.87 942.63 791.95 942.63L833.31 914.26V914.03C831.61 912.79 829.68 912.02 827.51 911.56Z" fill="#b1926b" opacity="1" stroke-width="4" stroke="none"></path><path d="M842.9 924.55C842.2 923.23 838.88 917.59 833.39 914.03L740.93 962.58C740.93 962.58 740.85 962.66 740.93 962.66 743.71 966.21 746.73 969.77 749.9 973.56 749.97 973.63 750.05 973.63 750.13 973.63 754.3 971.47 842.82 924.85 842.82 924.85 842.9 924.85 842.97 924.62 842.9 924.55Z" fill="#3d3326" opacity="1" stroke-width="4" stroke="none"></path><path d="M675.76 717.44C675.76 717.44 672.2 716.2 670.89 715.66 623.19 699.27 574.57 684.51 574.57 684.51H475.69C474.76 685.98 471.83 694.25 468.04 705.61 466.65 709.79 465.1 714.35 463.55 719.14 451.26 756.64 479.01 795.13 518.44 795.13H663.16L675.76 717.44Z" fill="#b1926b" opacity="1" stroke-width="4" stroke="none"></path><path d="M670.5 715.82C670.66 715.74 670.58 715.59 670.5 715.59 664.94 713.65 659.45 711.8 653.96 709.94 637.26 704.38 621.03 699.12 607.88 694.95 607.88 694.95 610.59 704.07 620.56 711.41 622.88 713.11 625.66 714.81 628.91 716.2 646.85 724.09 667.64 716.9 670.5 715.82Z" fill="#000000" opacity="0.2" stroke-width="4" stroke="none"></path><path d="M791.72 690.23C790.09 686.36 778.89 679.72 759.1 668.2 742.71 658.69 687.59 652.12 686.04 651.89H685.96L682.87 653.05C682.79 653.05 682.79 653.12 682.79 653.12L673.9 704.61C673.9 704.69 673.9 704.76 673.98 704.76L677.31 706.46H677.38C677.77 706.39 680.78 705.85 682.33 705.54 691.92 703.68 700.65 701.59 707.38 699.66 707.45 699.66 707.45 699.66 707.53 699.66 722.45 710.33 734.82 706.16 742.32 711.88 756.85 723.39 764.04 728.26 766.83 725.64 769.76 722.54 764.27 716.9 753.84 705.23 753.53 704.84 753.92 704.38 754.38 704.53 774.48 714.81 783.29 714.74 784.53 707.01 784.53 706.77 784.76 706.62 784.92 706.54 788.7 705.38 791.49 702.6 788.94 697.88 788.78 697.57 788.86 697.26 789.17 697.11 792.72 695.18 792.49 691.93 791.72 690.23Z" fill="#f2a89b" opacity="1" stroke-width="4" stroke="none"></path><path d="M600.62 707.47C615.23 714.81 649.09 711.57 677.31 706.46 677.38 706.46 677.38 706.39 677.38 706.31L685.96 652.04C685.96 651.96 685.89 651.89 685.81 651.89 659.45 649.72 636.26 649.88 632.47 649.95 632.16 649.95 631.85 649.72 631.77 649.41 629.68 642.92 608.27 576.74 594.36 558.58 580.29 539.95 550.99 536.93 548.82 536.7 548.74 536.7 548.67 536.62 548.67 536.55V525.41C548.67 525.34 548.59 525.26 548.51 525.26H496.1C496.02 525.26 495.94 525.34 495.94 525.41V536.08C495.94 536.16 495.87 536.24 495.79 536.24 477.55 538.17 465.72 550.15 459.07 559.66 436.88 590.58 411.06 654.59 419.03 681.26 423.05 694.64 434.33 700.82 445.15 703.6 456.52 706.54 466.88 705.77 467.88 705.69 467.96 705.69 467.96 705.61 468.04 705.61L475.69 685.13C475.69 685.05 475.77 685.05 475.85 685.05L576.03 685.21C576.11 685.21 576.11 685.21 576.19 685.28 576.73 686.21 583.07 698.58 600.62 707.47Z" fill="#534636" opacity="1" stroke-width="4" stroke="none"></path><path d="M659.99 700.36C664 700.36 667.26 697.1 667.26 693.09 667.26 689.08 664 685.82 659.99 685.82 655.98 685.82 652.72 689.08 652.72 693.09 652.72 697.1 655.98 700.36 659.99 700.36Z" fill="#000000" opacity="1" stroke-width="4" stroke="none"></path><path d="M707.22 699.74C700.5 701.59 692.07 703.6 682.48 705.54 682.48 705.54 682.41 705.54 682.48 705.46L700.34 693.32C700.5 693.24 700.73 693.24 700.81 693.4 703.74 697.26 706.45 699.12 707.22 699.58 707.3 699.58 707.3 699.66 707.22 699.74Z" fill="#050505" opacity="0.2" stroke-width="4" stroke="none"></path><path d="M445.31 703.6C457.6 706.77 468.04 705.61 468.04 705.61L475.77 684.97C475.77 684.97 475.77 684.97 475.77 684.9L467.65 639.75C467.57 639.52 467.26 639.52 467.26 639.75 466.57 645.16 463.71 665.96 459.77 677.78 455.28 690.85 445.93 702.68 445.31 703.6 445.23 703.6 445.23 703.6 445.31 703.6Z" fill="#000000" opacity="0.2" stroke-width="4" stroke="none"></path><path d="M576.03 685.05C575.49 684.12 571.32 676.47 561.5 646.86 561.35 646.47 560.8 646.55 560.8 646.94L556.86 685.13H575.96C576.03 685.13 576.11 685.05 576.03 685.05Z" fill="#000000" opacity="0.2" stroke-width="4" stroke="none"></path><path d="M585.62 420.43C573.48 412.24 562.81 421.9 560.11 424.61 559.72 424.99 559.1 425.07 558.64 424.84 543.41 416.95 519.68 417.34 508.31 429.17 501.28 436.43 495.71 446.56 493.7 468.9 490.3 505.24 441.75 512.27 441.06 562.67 441.06 563.29 441.52 563.76 442.14 563.76H527.41C527.95 563.76 528.49 563.45 528.8 562.91 542.33 535.15 534.44 501.83 533.05 496.66 532.97 496.19 532.67 495.88 532.28 495.65 528.65 493.64 509.86 482.51 516.28 469.13 523.54 453.9 540.16 466.2 543.64 469.06 544.11 469.44 544.65 469.52 545.19 469.37 548.9 468.21 563.82 463.34 575.26 455.68 591.26 445.25 595.44 427.16 585.62 420.43Z" fill="#010508" opacity="1" stroke-width="4" stroke="none"></path><path d="M499.42 433.11C510.78 433.11 519.99 423.9 519.99 412.55 519.99 401.19 510.78 391.98 499.42 391.98 488.07 391.98 478.86 401.19 478.86 412.55 478.86 423.9 488.07 433.11 499.42 433.11Z" fill="#010508" opacity="1" stroke-width="4" stroke="none"></path><path d="M566.6 471.14C567.88 471.14 568.92 470.11 568.92 468.82 568.92 467.54 567.88 466.51 566.6 466.51 565.32 466.51 564.28 467.54 564.28 468.82 564.28 470.11 565.32 471.14 566.6 471.14Z" fill="#010508" opacity="1" stroke-width="4" stroke="none"></path><path d="M539.7 511.03L548.67 529.2C548.67 529.28 548.74 529.2 548.74 529.2V514.28C548.74 514.2 548.67 514.13 548.59 514.05 547.82 513.74 543.95 512.27 540.71 510.18 540.09 509.8 539.39 510.42 539.7 511.03Z" fill="#a36c62" opacity="0.2" stroke-width="4" stroke="none"></path><path d="M694.39 947.51C694.39 947.51 696.09 922.23 705.21 925.55 715.96 929.34 694.39 947.51 694.39 947.51Z" stroke="#3d3326" stroke-width="4" stroke-linecap="round" stroke-linejoin="round" opacity="1" fill="none"></path><path d="M694.39 947.51C705.14 946.73 713.72 945.42 713.72 945.42" stroke="#3d3326" stroke-width="4" stroke-linecap="round" stroke-linejoin="round" opacity="1" fill="none"></path><path d="M553.92 685.82L559.18 700.28C563.51 712.34 573.56 721.54 586.01 724.94L669.65 747.82" stroke="#e7e7e7" stroke-width="4" stroke-linecap="round" stroke-linejoin="round" opacity="1" fill="none"></path><path d="M788.09 906.22C788.09 906.22 778.96 881.72 788.63 881.18 799.91 880.48 788.09 906.22 788.09 906.22Z" stroke="#3d3326" stroke-width="4" stroke-linecap="round" stroke-linejoin="round" opacity="1" fill="none"></path><path d="M788.09 906.22C797.59 901.35 804.16 896.25 804.16 896.25" stroke="#3d3326" stroke-width="4" stroke-linecap="round" stroke-linejoin="round" opacity="1" fill="none"></path><path d="M576.11 685.13C567.53 665.57 565.21 657.92 561.5 646.86" stroke="#000000" stroke-width="4" stroke-linecap="round" stroke-linejoin="round" opacity="1" fill="none"></path><path d="M475.77 685.05L467.34 638.36" stroke="#000000" stroke-width="4" stroke-linecap="round" stroke-linejoin="round" opacity="1" fill="none"></path><path d="M754.07 704.92L748.89 700.28" stroke="#050505" stroke-width="4" stroke-linecap="round" stroke-linejoin="round" opacity="1" fill="none"></path><path d="M784.61 706.93L752.99 690.38" stroke="#050505" stroke-width="4" stroke-linecap="round" stroke-linejoin="round" opacity="1" fill="none"></path><path d="M788.94 697.57L757.55 678.94" stroke="#050505" stroke-width="4" stroke-linecap="round" stroke-linejoin="round" opacity="1" fill="none"></path><path d="M625.74 795.21L663.16 795.13" stroke="#000000" stroke-width="4" stroke-linecap="round" stroke-linejoin="round" opacity="1" fill="none"></path><path d="M663.16 795.21C672.59 813.53 672.05 834.1 685.58 869.81L687.97 875.69" stroke="#050505" stroke-width="4" stroke-linecap="round" stroke-linejoin="round" opacity="1" fill="none"></path><path d="M658.75 946.73L674.91 972.55" stroke="#3d3326" stroke-width="4" stroke-linecap="round" stroke-linejoin="round" opacity="1" fill="none"></path><path d="M755.31 916.97L790.87 936.37" stroke="#3d3326" stroke-width="4" stroke-linecap="round" stroke-linejoin="round" opacity="1" fill="none"></path><path d="M530.11 478.49L536.69 482.2" stroke="#a36c62" stroke-width="4" stroke-linecap="round" stroke-linejoin="round" opacity="1" fill="none"></path><path d="M567.45 488.38C569.39 491.55 572.01 491.71 573.95 491.4" stroke="#050505" stroke-width="4" stroke-linecap="round" stroke-linejoin="round" opacity="1" fill="none"></path><path d="M548.9 514.13C548.9 514.13 543.33 511.96 540.63 510.18" stroke="#a36c62" stroke-width="4" stroke-linecap="round" stroke-linejoin="round" opacity="1" fill="none"></path><path d="M558.79 424.92C563.36 427.23 566.29 429.94 566.29 429.94" stroke="#075088" stroke-width="4" stroke-linecap="round" stroke-linejoin="round" opacity="1" fill="none"></path><path d="M554.85 537.55C551.53 536.7 548.74 536.62 548.74 536.62" stroke="#000000" stroke-width="4" stroke-linecap="round" stroke-linejoin="round" opacity="1" fill="none"></path></g><g><path d="M458.5 324.36C495.24 324.36 525.04 294.57 525.04 257.82 525.04 221.07 495.24 191.28 458.5 191.28 421.75 191.28 391.95 221.07 391.95 257.82 391.95 294.57 421.75 324.36 458.5 324.36Z" fill="#deb887" opacity="1" stroke-width="4" stroke="none"></path><path d="M465.53 231.96L458.5 257.82 481.41 287.91" stroke="#deb887" stroke-width="4" stroke-linecap="round" stroke-linejoin="round" opacity="1" fill="none"></path><path d="M458.5 209.95C460.38 209.95 461.9 208.42 461.9 206.55 461.9 204.67 460.38 203.15 458.5 203.15 456.62 203.15 455.09 204.67 455.09 206.55 455.09 208.42 456.62 209.95 458.5 209.95Z" fill="#cd9852" opacity="1" stroke-width="4" stroke="none"></path><path d="M458.5 312.41C460.38 312.41 461.9 310.88 461.9 309.01 461.9 307.12 460.38 305.61 458.5 305.61 456.62 305.61 455.09 307.12 455.09 309.01 455.09 310.88 456.62 312.41 458.5 312.41Z" fill="#cd9852" opacity="1" stroke-width="4" stroke="none"></path><path d="M509.69 261.22C511.57 261.22 513.09 259.69 513.09 257.82 513.09 255.93 511.57 254.41 509.69 254.41 507.8 254.41 506.28 255.93 506.28 257.82 506.28 259.69 507.8 261.22 509.69 261.22Z" fill="#cd9852" opacity="1" stroke-width="4" stroke="none"></path><path d="M407.23 261.22C409.11 261.22 410.63 259.69 410.63 257.82 410.63 255.93 409.11 254.41 407.23 254.41 405.35 254.41 403.83 255.93 403.83 257.82 403.83 259.69 405.35 261.22 407.23 261.22Z" fill="#cd9852" opacity="1" stroke-width="4" stroke="none"></path><path d="M458.34 262.81C460.98 262.81 463.11 260.67 463.11 258.04 463.11 255.41 460.98 253.28 458.34 253.28 455.71 253.28 453.58 255.41 453.58 258.04 453.58 260.67 455.71 262.81 458.34 262.81Z" fill="#3c3c3c" opacity="1" stroke-width="4" stroke="none"></path></g><g><path d="M858.94 669.54H900.43 903.9L907.99 638.39V629.39C907.99 613.73 895.26 601 879.6 601 863.93 601 851.2 613.73 851.2 629.39V638.39L854.49 669.54H858.94Z" fill="#b1926b" opacity="1" stroke-width="4" stroke="none"></path><path d="M908.08 638.39H851.29V668.83C851.29 669.54 851.82 670.08 852.53 670.08H906.75C907.46 670.08 907.99 669.54 907.99 668.83V638.39H908.08Z" fill="#e5d4bd" opacity="1" stroke-width="4" stroke="none"></path><path d="M888.5 590.32H870.6C870.16 590.32 869.8 590.67 869.8 591.12V602.78H889.21V591.12C889.3 590.67 888.94 590.32 888.5 590.32Z" fill="#b1926b" opacity="1" stroke-width="4" stroke="none"></path><path d="M879.6 590.32V579.46C879.6 576.16 882.27 573.4 885.65 573.4H895.53" stroke="#9d9080" stroke-width="4" stroke-linecap="round" stroke-linejoin="round" opacity="1" fill="none"></path></g></svg>